# xmcd
#
# Track frame offsets:
#	150
#	3294
#	17499
#	31569
#	60679
#	82255
#	101071
#	109741
#	132383
#	147309
#	171666
#	175791
#	193687
#	202417
#	216120
#	230883
#	251058
#	259480
#	278773
#	297613
#	311077
#	337921
#
# Disc length: 4724 seconds
#
# Revision: 0
# Processed by: cddbd v1.5.2PL0 Copyright (c) Steve Scherf et al.
# Submitted via: EasyCDDAExtractor 15.2.5.1
#
DISCID=5b127216
DTITLE=Various Artist - bollywood bloodbath
DYEAR=1900
DGENRE=
TTITLE0=rajesh roshan - sannata theme
TTITLE1=hemant bhole - sansani khez koi baat
TTITLE2=bappi lahiri - he met me in the guest house
TTITLE3=bappi lahiri - meri jaan
TTITLE4=laxmikant pyarelal - aa jaane jaan
TTITLE5=ratandeep hemraj - birha ki maari koi
TTITLE6=bappi lahiri - dance music
TTITLE7=sapan jagmohan - aji kahan gum ho
TTITLE8=laxmikant pyarelal - theme music from anita
TTITLE9=usha kanna - jeena hai to jee bhar hanslo
TTITLE10=rajesh roshan - marjaban too kuthe (part 1)
TTITLE11=sapan jagmohan - sote sote adhi rat
TTITLE12=hemant bhole - ab kahan jayenge ham (sad)
TTITLE13=sonik omi - main theme from andhera - darwaza
TTITLE14=bappi lahiri - disco title music from dahshat
TTITLE15=rajesh roshan - superman, superman
TTITLE16=khemchand prakash - dance music
TTITLE17=bappi lahiri - aafat
TTITLE18=laxmikant pyarelal - chal re doli
TTITLE19=rajesh roshan - marjaban too kuthe (part 2)
TTITLE20=nadeem and shravan - dekho dekho dekho magar pyar se
TTITLE21=r.d. burman - bindya tarse kajra barse
EXTD=
EXTT0=
EXTT1=
EXTT2=
EXTT3=
EXTT4=
EXTT5=
EXTT6=
EXTT7=
EXTT8=
EXTT9=
EXTT10=
EXTT11=
EXTT12=
EXTT13=
EXTT14=
EXTT15=
EXTT16=
EXTT17=
EXTT18=
EXTT19=
EXTT20=
EXTT21=
PLAYORDER=
